solid Default
  facet normal 0.000000e+00 0.000000e+00 -1.000000e+00
    outer loop
      vertex -4.100000e+01 0.000000e+00 3.000000e+00
      vertex -4.010410e+01 8.524380e+00 3.000000e+00
      vertex -4.010410e+01 -8.524380e+00 3.000000e+00
    endloop
  endfacet
  facet normal 0.000000e+00 0.000000e+00 -1.000000e+00
    outer loop
      vertex -4.010410e+01 -8.524380e+00 3.000000e+00
      vertex -4.010410e+01 8.524380e+00 3.000000e+00
      vertex -3.745540e+01 1.667620e+01 3.000000e+00
    endloop
  endfacet
  facet normal 0.000000e+00 0.000000e+00 -1.000000e+00
    outer loop
      vertex -4.010410e+01 -8.524380e+00 3.000000e+00
      vertex -3.745540e+01 1.667620e+01 3.000000e+00
      vertex -3.316970e+01 2.409920e+01 3.000000e+00
    endloop
  endfacet
  facet normal 0.000000e+00 0.000000e+00 -1.000000e+00
    outer loop
      vertex -3.742710e+01 1.763360e+00 3.000000e+00
      vertex -3.316970e+01 2.409920e+01 3.000000e+00
      vertex -2.743440e+01 3.046890e+01 3.000000e+00
    endloop
  endfacet
  facet normal 0.000000e+00 0.000000e+00 -1.000000e+00
    outer loop
      vertex -3.592710e+01 2.853170e+00 3.000000e+00
      vertex -2.743440e+01 3.046890e+01 3.000000e+00
      vertex -2.050000e+01 3.550700e+01 3.000000e+00
    endloop
  endfacet
  facet normal 0.000000e+00 0.000000e+00 -1.000000e+00
    outer loop
      vertex -3.407290e+01 2.853170e+00 3.000000e+00
      vertex -2.050000e+01 3.550700e+01 3.000000e+00
      vertex -1.266970e+01 3.899330e+01 3.000000e+00
    endloop
  endfacet
  facet normal 0.000000e+00 0.000000e+00 -1.000000e+00
    outer loop
      vertex -1.540000e+01 2.667360e+01 3.000000e+00
      vertex -1.266970e+01 3.899330e+01 3.000000e+00
      vertex -4.285670e+00 4.077540e+01 3.000000e+00
    endloop
  endfacet
  facet normal 0.000000e+00 0.000000e+00 -1.000000e+00
    outer loop
      vertex 8.437690e-15 3.800000e+01 3.000000e+00
      vertex -4.285670e+00 4.077540e+01 3.000000e+00
      vertex 4.285670e+00 4.077540e+01 3.000000e+00
    endloop
  endfacet
  facet normal 0.000000e+00 0.000000e+00 -1.000000e+00
    outer loop
      vertex 3.219480e+00 3.063130e+01 3.000000e+00
      vertex 4.285670e+00 4.077540e+01 3.000000e+00
      vertex 1.266970e+01 3.899330e+01 3.000000e+00
    endloop
  endfacet
  facet normal 0.000000e+00 0.000000e+00 -1.000000e+00
    outer loop
      vertex 9.517720e+00 2.929250e+01 3.000000e+00
      vertex 1.266970e+01 3.899330e+01 3.000000e+00
      vertex 2.050000e+01 3.550700e+01 3.000000e+00
    endloop
  endfacet
  facet normal 0.000000e+00 0.000000e+00 -1.000000e+00
    outer loop
      vertex 1.540000e+01 2.667360e+01 3.000000e+00
      vertex 2.050000e+01 3.550700e+01 3.000000e+00
      vertex 2.743440e+01 3.046890e+01 3.000000e+00
    endloop
  endfacet
  facet normal 0.000000e+00 0.000000e+00 -1.000000e+00
    outer loop
      vertex 2.060920e+01 2.288890e+01 3.000000e+00
      vertex 2.743440e+01 3.046890e+01 3.000000e+00
      vertex 3.316970e+01 2.409920e+01 3.000000e+00
    endloop
  endfacet
  facet normal 0.000000e+00 0.000000e+00 -1.000000e+00
    outer loop
      vertex 2.491770e+01 1.810380e+01 3.000000e+00
      vertex 3.316970e+01 2.409920e+01 3.000000e+00
      vertex 3.745540e+01 1.667620e+01 3.000000e+00
    endloop
  endfacet
  facet normal 0.000000e+00 0.000000e+00 -1.000000e+00
    outer loop
      vertex 3.012690e+01 6.403680e+00 3.000000e+00
      vertex 3.745540e+01 1.667620e+01 3.000000e+00
      vertex 4.010410e+01 8.524380e+00 3.000000e+00
    endloop
  endfacet
  facet normal 0.000000e+00 0.000000e+00 -1.000000e+00
    outer loop
      vertex 3.012690e+01 -6.403680e+00 3.000000e+00
      vertex 4.100000e+01 0.000000e+00 3.000000e+00
      vertex 4.010410e+01 -8.524380e+00 3.000000e+00
    endloop
  endfacet
  facet normal 0.000000e+00 0.000000e+00 -1.000000e+00
    outer loop
      vertex 2.813720e+01 -1.252750e+01 3.000000e+00
      vertex 4.010410e+01 -8.524380e+00 3.000000e+00
      vertex 3.745540e+01 -1.667620e+01 3.000000e+00
    endloop
  endfacet
  facet normal 0.000000e+00 0.000000e+00 -1.000000e+00
    outer loop
      vertex 2.491770e+01 -1.810380e+01 3.000000e+00
      vertex 3.745540e+01 -1.667620e+01 3.000000e+00
      vertex 3.316970e+01 -2.409920e+01 3.000000e+00
    endloop
  endfacet
  facet normal 0.000000e+00 0.000000e+00 -1.000000e+00
    outer loop
      vertex 2.060920e+01 -2.288890e+01 3.000000e+00
      vertex 3.316970e+01 -2.409920e+01 3.000000e+00
      vertex 2.743440e+01 -3.046890e+01 3.000000e+00
    endloop
  endfacet
  facet normal 0.000000e+00 0.000000e+00 -1.000000e+00
    outer loop
      vertex 9.517720e+00 -2.929250e+01 3.000000e+00
      vertex 2.743440e+01 -3.046890e+01 3.000000e+00
      vertex 2.050000e+01 -3.550700e+01 3.000000e+00
    endloop
  endfacet
  facet normal 0.000000e+00 0.000000e+00 -1.000000e+00
    outer loop
      vertex 3.219480e+00 -3.063130e+01 3.000000e+00
      vertex 2.050000e+01 -3.550700e+01 3.000000e+00
      vertex 1.266970e+01 -3.899330e+01 3.000000e+00
    endloop
  endfacet
  facet normal 0.000000e+00 0.000000e+00 -1.000000e+00
    outer loop
      vertex 1.763360e+00 -3.742710e+01 3.000000e+00
      vertex 1.266970e+01 -3.899330e+01 3.000000e+00
      vertex 4.285670e+00 -4.077540e+01 3.000000e+00
    endloop
  endfacet
  facet normal 0.000000e+00 0.000000e+00 -1.000000e+00
    outer loop
      vertex -1.763360e+00 -3.742710e+01 3.000000e+00
      vertex 4.285670e+00 -4.077540e+01 3.000000e+00
      vertex -4.285670e+00 -4.077540e+01 3.000000e+00
    endloop
  endfacet
  facet normal 0.000000e+00 0.000000e+00 -1.000000e+00
    outer loop
      vertex -4.010410e+01 -8.524380e+00 3.000000e+00
      vertex -4.285670e+00 -4.077540e+01 3.000000e+00
      vertex -1.266970e+01 -3.899330e+01 3.000000e+00
    endloop
  endfacet
  facet normal 0.000000e+00 0.000000e+00 -1.000000e+00
    outer loop
      vertex -4.010410e+01 -8.524380e+00 3.000000e+00
      vertex -1.266970e+01 -3.899330e+01 3.000000e+00
      vertex -2.050000e+01 -3.550700e+01 3.000000e+00
    endloop
  endfacet
  facet normal 0.000000e+00 0.000000e+00 -1.000000e+00
    outer loop
      vertex -4.010410e+01 -8.524380e+00 3.000000e+00
      vertex -2.050000e+01 -3.550700e+01 3.000000e+00
      vertex -2.743440e+01 -3.046890e+01 3.000000e+00
    endloop
  endfacet
  facet normal 0.000000e+00 0.000000e+00 -1.000000e+00
    outer loop
      vertex -4.010410e+01 -8.524380e+00 3.000000e+00
      vertex -2.743440e+01 -3.046890e+01 3.000000e+00
      vertex -3.316970e+01 -2.409920e+01 3.000000e+00
    endloop
  endfacet
  facet normal 0.000000e+00 0.000000e+00 -1.000000e+00
    outer loop
      vertex -4.010410e+01 -8.524380e+00 3.000000e+00
      vertex -3.316970e+01 -2.409920e+01 3.000000e+00
      vertex -3.745540e+01 -1.667620e+01 3.000000e+00
    endloop
  endfacet
  facet normal 0.000000e+00 0.000000e+00 -1.000000e+00
    outer loop
      vertex -4.010410e+01 -8.524380e+00 3.000000e+00
      vertex -3.316970e+01 2.409920e+01 3.000000e+00
      vertex -3.800000e+01 4.653660e-15 3.000000e+00
    endloop
  endfacet
  facet normal 0.000000e+00 0.000000e+00 -1.000000e+00
    outer loop
      vertex -3.592710e+01 -2.853170e+00 3.000000e+00
      vertex -4.010410e+01 -8.524380e+00 3.000000e+00
      vertex -3.742710e+01 -1.763360e+00 3.000000e+00
    endloop
  endfacet
  facet normal 0.000000e+00 0.000000e+00 -1.000000e+00
    outer loop
      vertex 2.060920e+01 2.288890e+01 3.000000e+00
      vertex 3.316970e+01 2.409920e+01 3.000000e+00
      vertex 2.491770e+01 1.810380e+01 3.000000e+00
    endloop
  endfacet
  facet normal 0.000000e+00 0.000000e+00 -1.000000e+00
    outer loop
      vertex -3.407290e+01 -2.853170e+00 3.000000e+00
      vertex -4.010410e+01 -8.524380e+00 3.000000e+00
      vertex -3.592710e+01 -2.853170e+00 3.000000e+00
    endloop
  endfacet
  facet normal 0.000000e+00 0.000000e+00 -1.000000e+00
    outer loop
      vertex 3.219480e+00 3.063130e+01 3.000000e+00
      vertex 1.266970e+01 3.899330e+01 3.000000e+00
      vertex 9.517720e+00 2.929250e+01 3.000000e+00
    endloop
  endfacet
  facet normal 0.000000e+00 0.000000e+00 -1.000000e+00
    outer loop
      vertex -3.257290e+01 -1.763360e+00 3.000000e+00
      vertex -4.010410e+01 -8.524380e+00 3.000000e+00
      vertex -3.407290e+01 -2.853170e+00 3.000000e+00
    endloop
  endfacet
  facet normal 0.000000e+00 0.000000e+00 -1.000000e+00
    outer loop
      vertex -1.540000e+01 2.667360e+01 3.000000e+00
      vertex -4.285670e+00 4.077540e+01 3.000000e+00
      vertex -9.517720e+00 2.929250e+01 3.000000e+00
    endloop
  endfacet
  facet normal 0.000000e+00 0.000000e+00 -1.000000e+00
    outer loop
      vertex -2.491770e+01 1.810380e+01 3.000000e+00
      vertex -3.407290e+01 2.853170e+00 3.000000e+00
      vertex -1.266970e+01 3.899330e+01 3.000000e+00
    endloop
  endfacet
  facet normal 0.000000e+00 0.000000e+00 -1.000000e+00
    outer loop
      vertex -3.742710e+01 1.763360e+00 3.000000e+00
      vertex -2.743440e+01 3.046890e+01 3.000000e+00
      vertex -3.592710e+01 2.853170e+00 3.000000e+00
    endloop
  endfacet
  facet normal 0.000000e+00 0.000000e+00 -1.000000e+00
    outer loop
      vertex -3.800000e+01 4.653660e-15 3.000000e+00
      vertex -3.316970e+01 2.409920e+01 3.000000e+00
      vertex -3.742710e+01 1.763360e+00 3.000000e+00
    endloop
  endfacet
  facet normal 0.000000e+00 0.000000e+00 -1.000000e+00
    outer loop
      vertex -3.080000e+01 0.000000e+00 3.000000e+00
      vertex -3.200000e+01 3.918870e-15 3.000000e+00
      vertex -3.257290e+01 1.763360e+00 3.000000e+00
    endloop
  endfacet
  facet normal 0.000000e+00 0.000000e+00 -1.000000e+00
    outer loop
      vertex -3.012690e+01 -6.403680e+00 3.000000e+00
      vertex -3.257290e+01 -1.763360e+00 3.000000e+00
      vertex -3.080000e+01 0.000000e+00 3.000000e+00
    endloop
  endfacet
  facet normal 0.000000e+00 0.000000e+00 -1.000000e+00
    outer loop
      vertex -2.813720e+01 -1.252750e+01 3.000000e+00
      vertex -4.010410e+01 -8.524380e+00 3.000000e+00
      vertex -3.012690e+01 -6.403680e+00 3.000000e+00
    endloop
  endfacet
  facet normal 0.000000e+00 0.000000e+00 -1.000000e+00
    outer loop
      vertex -2.491770e+01 -1.810380e+01 3.000000e+00
      vertex -4.010410e+01 -8.524380e+00 3.000000e+00
      vertex -2.813720e+01 -1.252750e+01 3.000000e+00
    endloop
  endfacet
  facet normal 0.000000e+00 0.000000e+00 -1.000000e+00
    outer loop
      vertex -2.060920e+01 -2.288890e+01 3.000000e+00
      vertex -4.010410e+01 -8.524380e+00 3.000000e+00
      vertex -2.491770e+01 -1.810380e+01 3.000000e+00
    endloop
  endfacet
  facet normal 0.000000e+00 0.000000e+00 -1.000000e+00
    outer loop
      vertex -4.010410e+01 -8.524380e+00 3.000000e+00
      vertex -2.060920e+01 -2.288890e+01 3.000000e+00
      vertex -4.285670e+00 -4.077540e+01 3.000000e+00
    endloop
  endfacet
  facet normal 0.000000e+00 0.000000e+00 -1.000000e+00
    outer loop
      vertex 3.219480e+00 -3.063130e+01 3.000000e+00
      vertex -7.105430e-15 -3.200000e+01 3.000000e+00
      vertex -3.219480e+00 -3.063130e+01 3.000000e+00
    endloop
  endfacet
  facet normal 0.000000e+00 0.000000e+00 -1.000000e+00
    outer loop
      vertex -2.060920e+01 -2.288890e+01 3.000000e+00
      vertex -1.540000e+01 -2.667360e+01 3.000000e+00
      vertex -4.285670e+00 -4.077540e+01 3.000000e+00
    endloop
  endfacet
  facet normal 0.000000e+00 0.000000e+00 -1.000000e+00
    outer loop
      vertex -2.853170e+00 -3.592710e+01 3.000000e+00
      vertex -9.517720e+00 -2.929250e+01 3.000000e+00
      vertex -2.853170e+00 -3.407290e+01 3.000000e+00
    endloop
  endfacet
  facet normal 0.000000e+00 0.000000e+00 -1.000000e+00
    outer loop
      vertex -1.763360e+00 -3.257290e+01 3.000000e+00
      vertex -9.517720e+00 -2.929250e+01 3.000000e+00
      vertex -3.219480e+00 -3.063130e+01 3.000000e+00
    endloop
  endfacet
  facet normal 0.000000e+00 0.000000e+00 -1.000000e+00
    outer loop
      vertex -1.763360e+00 -3.257290e+01 3.000000e+00
      vertex -3.219480e+00 -3.063130e+01 3.000000e+00
      vertex -7.105430e-15 -3.200000e+01 3.000000e+00
    endloop
  endfacet
  facet normal 0.000000e+00 0.000000e+00 -1.000000e+00
    outer loop
      vertex 1.763360e+00 -3.257290e+01 3.000000e+00
      vertex 3.219480e+00 -3.063130e+01 3.000000e+00
      vertex 1.266970e+01 -3.899330e+01 3.000000e+00
    endloop
  endfacet
  facet normal 0.000000e+00 0.000000e+00 -1.000000e+00
    outer loop
      vertex 1.540000e+01 -2.667360e+01 3.000000e+00
      vertex 2.743440e+01 -3.046890e+01 3.000000e+00
      vertex 9.517720e+00 -2.929250e+01 3.000000e+00
    endloop
  endfacet
  facet normal 0.000000e+00 0.000000e+00 -1.000000e+00
    outer loop
      vertex 2.060920e+01 -2.288890e+01 3.000000e+00
      vertex 2.743440e+01 -3.046890e+01 3.000000e+00
      vertex 1.540000e+01 -2.667360e+01 3.000000e+00
    endloop
  endfacet
  facet normal 0.000000e+00 0.000000e+00 -1.000000e+00
    outer loop
      vertex 3.080000e+01 0.000000e+00 3.000000e+00
      vertex 3.200000e+01 0.000000e+00 3.000000e+00
      vertex 3.257290e+01 -1.763360e+00 3.000000e+00
    endloop
  endfacet
  facet normal 0.000000e+00 0.000000e+00 -1.000000e+00
    outer loop
      vertex 9.517720e+00 -2.929250e+01 3.000000e+00
      vertex 2.050000e+01 -3.550700e+01 3.000000e+00
      vertex 3.219480e+00 -3.063130e+01 3.000000e+00
    endloop
  endfacet
  facet normal 0.000000e+00 0.000000e+00 -1.000000e+00
    outer loop
      vertex 3.592710e+01 -2.853170e+00 3.000000e+00
      vertex 4.100000e+01 0.000000e+00 3.000000e+00
      vertex 3.012690e+01 -6.403680e+00 3.000000e+00
    endloop
  endfacet
  facet normal 0.000000e+00 0.000000e+00 -1.000000e+00
    outer loop
      vertex 3.742710e+01 1.763360e+00 3.000000e+00
      vertex 4.010410e+01 8.524380e+00 3.000000e+00
      vertex 3.800000e+01 0.000000e+00 3.000000e+00
    endloop
  endfacet
  facet normal 0.000000e+00 0.000000e+00 -1.000000e+00
    outer loop
      vertex 2.813720e+01 1.252750e+01 3.000000e+00
      vertex 3.745540e+01 1.667620e+01 3.000000e+00
      vertex 3.012690e+01 6.403680e+00 3.000000e+00
    endloop
  endfacet
  facet normal 0.000000e+00 0.000000e+00 -1.000000e+00
    outer loop
      vertex 3.407290e+01 2.853170e+00 3.000000e+00
      vertex 4.010410e+01 8.524380e+00 3.000000e+00
      vertex 3.592710e+01 2.853170e+00 3.000000e+00
    endloop
  endfacet
  facet normal 0.000000e+00 0.000000e+00 -1.000000e+00
    outer loop
      vertex 3.012690e+01 -6.403680e+00 3.000000e+00
      vertex 4.010410e+01 -8.524380e+00 3.000000e+00
      vertex 2.813720e+01 -1.252750e+01 3.000000e+00
    endloop
  endfacet
  facet normal 0.000000e+00 0.000000e+00 -1.000000e+00
    outer loop
      vertex 2.813720e+01 -1.252750e+01 3.000000e+00
      vertex 3.745540e+01 -1.667620e+01 3.000000e+00
      vertex 2.491770e+01 -1.810380e+01 3.000000e+00
    endloop
  endfacet
  facet normal 0.000000e+00 0.000000e+00 -1.000000e+00
    outer loop
      vertex 2.491770e+01 -1.810380e+01 3.000000e+00
      vertex 3.316970e+01 -2.409920e+01 3.000000e+00
      vertex 2.060920e+01 -2.288890e+01 3.000000e+00
    endloop
  endfacet
  facet normal 0.000000e+00 0.000000e+00 -1.000000e+00
    outer loop
      vertex 2.853170e+00 3.407290e+01 3.000000e+00
      vertex 4.285670e+00 4.077540e+01 3.000000e+00
      vertex 3.219480e+00 3.063130e+01 3.000000e+00
    endloop
  endfacet
  facet normal 0.000000e+00 0.000000e+00 -1.000000e+00
    outer loop
      vertex 1.540000e+01 2.667360e+01 3.000000e+00
      vertex 2.743440e+01 3.046890e+01 3.000000e+00
      vertex 2.060920e+01 2.288890e+01 3.000000e+00
    endloop
  endfacet
  facet normal 0.000000e+00 0.000000e+00 -1.000000e+00
    outer loop
      vertex -1.763360e+00 3.257290e+01 3.000000e+00
      vertex -3.219480e+00 3.063130e+01 3.000000e+00
      vertex -2.853170e+00 3.407290e+01 3.000000e+00
    endloop
  endfacet
  facet normal 0.000000e+00 0.000000e+00 -1.000000e+00
    outer loop
      vertex -2.060920e+01 2.288890e+01 3.000000e+00
      vertex -1.266970e+01 3.899330e+01 3.000000e+00
      vertex -1.540000e+01 2.667360e+01 3.000000e+00
    endloop
  endfacet
  facet normal 0.000000e+00 0.000000e+00 -1.000000e+00
    outer loop
      vertex -3.407290e+01 2.853170e+00 3.000000e+00
      vertex -3.012690e+01 6.403680e+00 3.000000e+00
      vertex -3.257290e+01 1.763360e+00 3.000000e+00
    endloop
  endfacet
  facet normal 0.000000e+00 0.000000e+00 -1.000000e+00
    outer loop
      vertex -3.012690e+01 -6.403680e+00 3.000000e+00
      vertex -4.010410e+01 -8.524380e+00 3.000000e+00
      vertex -3.257290e+01 -1.763360e+00 3.000000e+00
    endloop
  endfacet
  facet normal 0.000000e+00 0.000000e+00 -1.000000e+00
    outer loop
      vertex -2.813720e+01 1.252750e+01 3.000000e+00
      vertex -3.407290e+01 2.853170e+00 3.000000e+00
      vertex -2.491770e+01 1.810380e+01 3.000000e+00
    endloop
  endfacet
  facet normal 0.000000e+00 0.000000e+00 -1.000000e+00
    outer loop
      vertex -3.200000e+01 3.918870e-15 3.000000e+00
      vertex -3.080000e+01 0.000000e+00 3.000000e+00
      vertex -3.257290e+01 -1.763360e+00 3.000000e+00
    endloop
  endfacet
  facet normal 0.000000e+00 0.000000e+00 -1.000000e+00
    outer loop
      vertex -2.853170e+00 -3.592710e+01 3.000000e+00
      vertex -1.540000e+01 -2.667360e+01 3.000000e+00
      vertex -9.517720e+00 -2.929250e+01 3.000000e+00
    endloop
  endfacet
  facet normal 0.000000e+00 0.000000e+00 -1.000000e+00
    outer loop
      vertex 1.763360e+00 -3.742710e+01 3.000000e+00
      vertex 4.285670e+00 -4.077540e+01 3.000000e+00
      vertex -8.437690e-15 -3.800000e+01 3.000000e+00
    endloop
  endfacet
  facet normal 0.000000e+00 0.000000e+00 -1.000000e+00
    outer loop
      vertex -1.540000e+01 -2.667360e+01 3.000000e+00
      vertex -2.853170e+00 -3.592710e+01 3.000000e+00
      vertex -4.285670e+00 -4.077540e+01 3.000000e+00
    endloop
  endfacet
  facet normal 0.000000e+00 0.000000e+00 -1.000000e+00
    outer loop
      vertex -8.437690e-15 -3.800000e+01 3.000000e+00
      vertex 4.285670e+00 -4.077540e+01 3.000000e+00
      vertex -1.763360e+00 -3.742710e+01 3.000000e+00
    endloop
  endfacet
  facet normal 0.000000e+00 0.000000e+00 -1.000000e+00
    outer loop
      vertex -2.853170e+00 -3.592710e+01 3.000000e+00
      vertex -1.763360e+00 -3.742710e+01 3.000000e+00
      vertex -4.285670e+00 -4.077540e+01 3.000000e+00
    endloop
  endfacet
  facet normal 0.000000e+00 0.000000e+00 -1.000000e+00
    outer loop
      vertex 2.853170e+00 -3.592710e+01 3.000000e+00
      vertex 1.266970e+01 -3.899330e+01 3.000000e+00
      vertex 1.763360e+00 -3.742710e+01 3.000000e+00
    endloop
  endfacet
  facet normal 0.000000e+00 0.000000e+00 -1.000000e+00
    outer loop
      vertex 2.853170e+00 -3.407290e+01 3.000000e+00
      vertex 1.266970e+01 -3.899330e+01 3.000000e+00
      vertex 2.853170e+00 -3.592710e+01 3.000000e+00
    endloop
  endfacet
  facet normal 0.000000e+00 0.000000e+00 -1.000000e+00
    outer loop
      vertex 3.257290e+01 1.763360e+00 3.000000e+00
      vertex 4.010410e+01 8.524380e+00 3.000000e+00
      vertex 3.407290e+01 2.853170e+00 3.000000e+00
    endloop
  endfacet
  facet normal 0.000000e+00 0.000000e+00 -1.000000e+00
    outer loop
      vertex 3.219480e+00 -3.063130e+01 3.000000e+00
      vertex 1.763360e+00 -3.257290e+01 3.000000e+00
      vertex -7.105430e-15 -3.200000e+01 3.000000e+00
    endloop
  endfacet
  facet normal 0.000000e+00 0.000000e+00 -1.000000e+00
    outer loop
      vertex 3.080000e+01 0.000000e+00 3.000000e+00
      vertex 3.257290e+01 -1.763360e+00 3.000000e+00
      vertex 3.012690e+01 -6.403680e+00 3.000000e+00
    endloop
  endfacet
  facet normal 0.000000e+00 0.000000e+00 -1.000000e+00
    outer loop
      vertex 1.763360e+00 -3.257290e+01 3.000000e+00
      vertex 1.266970e+01 -3.899330e+01 3.000000e+00
      vertex 2.853170e+00 -3.407290e+01 3.000000e+00
    endloop
  endfacet
  facet normal 0.000000e+00 0.000000e+00 -1.000000e+00
    outer loop
      vertex -2.853170e+00 3.407290e+01 3.000000e+00
      vertex -9.517720e+00 2.929250e+01 3.000000e+00
      vertex -2.853170e+00 3.592710e+01 3.000000e+00
    endloop
  endfacet
  facet normal 0.000000e+00 0.000000e+00 -1.000000e+00
    outer loop
      vertex -9.517720e+00 2.929250e+01 3.000000e+00
      vertex -4.285670e+00 4.077540e+01 3.000000e+00
      vertex -2.853170e+00 3.592710e+01 3.000000e+00
    endloop
  endfacet
  facet normal 0.000000e+00 0.000000e+00 -1.000000e+00
    outer loop
      vertex 8.437690e-15 3.800000e+01 3.000000e+00
      vertex 4.285670e+00 4.077540e+01 3.000000e+00
      vertex 1.763360e+00 3.742710e+01 3.000000e+00
    endloop
  endfacet
  facet normal 0.000000e+00 0.000000e+00 -1.000000e+00
    outer loop
      vertex 9.517720e+00 2.929250e+01 3.000000e+00
      vertex 2.050000e+01 3.550700e+01 3.000000e+00
      vertex 1.540000e+01 2.667360e+01 3.000000e+00
    endloop
  endfacet
  facet normal 0.000000e+00 0.000000e+00 -1.000000e+00
    outer loop
      vertex 1.763360e+00 3.742710e+01 3.000000e+00
      vertex 4.285670e+00 4.077540e+01 3.000000e+00
      vertex 2.853170e+00 3.592710e+01 3.000000e+00
    endloop
  endfacet
  facet normal 0.000000e+00 0.000000e+00 -1.000000e+00
    outer loop
      vertex -3.219480e+00 3.063130e+01 3.000000e+00
      vertex -1.763360e+00 3.257290e+01 3.000000e+00
      vertex 3.219480e+00 3.063130e+01 3.000000e+00
    endloop
  endfacet
  facet normal 0.000000e+00 0.000000e+00 -1.000000e+00
    outer loop
      vertex -1.763360e+00 3.257290e+01 3.000000e+00
      vertex 7.105430e-15 3.200000e+01 3.000000e+00
      vertex 3.219480e+00 3.063130e+01 3.000000e+00
    endloop
  endfacet
  facet normal 0.000000e+00 0.000000e+00 -1.000000e+00
    outer loop
      vertex 7.105430e-15 3.200000e+01 3.000000e+00
      vertex 1.763360e+00 3.257290e+01 3.000000e+00
      vertex 3.219480e+00 3.063130e+01 3.000000e+00
    endloop
  endfacet
  facet normal 0.000000e+00 0.000000e+00 -1.000000e+00
    outer loop
      vertex 2.853170e+00 3.592710e+01 3.000000e+00
      vertex 4.285670e+00 4.077540e+01 3.000000e+00
      vertex 2.853170e+00 3.407290e+01 3.000000e+00
    endloop
  endfacet
  facet normal 0.000000e+00 0.000000e+00 -1.000000e+00
    outer loop
      vertex 1.763360e+00 3.257290e+01 3.000000e+00
      vertex 2.853170e+00 3.407290e+01 3.000000e+00
      vertex 3.219480e+00 3.063130e+01 3.000000e+00
    endloop
  endfacet
  facet normal 0.000000e+00 0.000000e+00 -1.000000e+00
    outer loop
      vertex -1.763360e+00 3.742710e+01 3.000000e+00
      vertex -4.285670e+00 4.077540e+01 3.000000e+00
      vertex 8.437690e-15 3.800000e+01 3.000000e+00
    endloop
  endfacet
  facet normal 0.000000e+00 0.000000e+00 -1.000000e+00
    outer loop
      vertex 3.200000e+01 0.000000e+00 3.000000e+00
      vertex 3.080000e+01 0.000000e+00 3.000000e+00
      vertex 3.257290e+01 1.763360e+00 3.000000e+00
    endloop
  endfacet
  facet normal 0.000000e+00 0.000000e+00 -1.000000e+00
    outer loop
      vertex -2.853170e+00 3.592710e+01 3.000000e+00
      vertex -4.285670e+00 4.077540e+01 3.000000e+00
      vertex -1.763360e+00 3.742710e+01 3.000000e+00
    endloop
  endfacet
  facet normal 0.000000e+00 0.000000e+00 -1.000000e+00
    outer loop
      vertex 3.012690e+01 6.403680e+00 3.000000e+00
      vertex 4.010410e+01 8.524380e+00 3.000000e+00
      vertex 3.257290e+01 1.763360e+00 3.000000e+00
    endloop
  endfacet
  facet normal 0.000000e+00 0.000000e+00 -1.000000e+00
    outer loop
      vertex 3.800000e+01 0.000000e+00 3.000000e+00
      vertex 4.010410e+01 8.524380e+00 3.000000e+00
      vertex 4.100000e+01 0.000000e+00 3.000000e+00
    endloop
  endfacet
  facet normal 0.000000e+00 0.000000e+00 -1.000000e+00
    outer loop
      vertex 3.257290e+01 -1.763360e+00 3.000000e+00
      vertex 3.407290e+01 -2.853170e+00 3.000000e+00
      vertex 3.012690e+01 -6.403680e+00 3.000000e+00
    endloop
  endfacet
  facet normal 0.000000e+00 0.000000e+00 -1.000000e+00
    outer loop
      vertex 3.742710e+01 -1.763360e+00 3.000000e+00
      vertex 4.100000e+01 0.000000e+00 3.000000e+00
      vertex 3.592710e+01 -2.853170e+00 3.000000e+00
    endloop
  endfacet
  facet normal 0.000000e+00 0.000000e+00 -1.000000e+00
    outer loop
      vertex 3.407290e+01 -2.853170e+00 3.000000e+00
      vertex 3.592710e+01 -2.853170e+00 3.000000e+00
      vertex 3.012690e+01 -6.403680e+00 3.000000e+00
    endloop
  endfacet
  facet normal 0.000000e+00 0.000000e+00 -1.000000e+00
    outer loop
      vertex 3.012690e+01 6.403680e+00 3.000000e+00
      vertex 3.257290e+01 1.763360e+00 3.000000e+00
      vertex 3.080000e+01 0.000000e+00 3.000000e+00
    endloop
  endfacet
  facet normal 0.000000e+00 0.000000e+00 -1.000000e+00
    outer loop
      vertex 3.592710e+01 2.853170e+00 3.000000e+00
      vertex 4.010410e+01 8.524380e+00 3.000000e+00
      vertex 3.742710e+01 1.763360e+00 3.000000e+00
    endloop
  endfacet
  facet normal 0.000000e+00 0.000000e+00 -1.000000e+00
    outer loop
      vertex 3.800000e+01 0.000000e+00 3.000000e+00
      vertex 4.100000e+01 0.000000e+00 3.000000e+00
      vertex 3.742710e+01 -1.763360e+00 3.000000e+00
    endloop
  endfacet
  facet normal 0.000000e+00 0.000000e+00 -1.000000e+00
    outer loop
      vertex -9.517720e+00 2.929250e+01 3.000000e+00
      vertex -2.853170e+00 3.407290e+01 3.000000e+00
      vertex -3.219480e+00 3.063130e+01 3.000000e+00
    endloop
  endfacet
  facet normal 0.000000e+00 0.000000e+00 -1.000000e+00
    outer loop
      vertex -3.742710e+01 -1.763360e+00 3.000000e+00
      vertex -4.010410e+01 -8.524380e+00 3.000000e+00
      vertex -3.800000e+01 4.653660e-15 3.000000e+00
    endloop
  endfacet
  facet normal 0.000000e+00 0.000000e+00 -1.000000e+00
    outer loop
      vertex -3.080000e+01 0.000000e+00 3.000000e+00
      vertex -3.257290e+01 1.763360e+00 3.000000e+00
      vertex -3.012690e+01 6.403680e+00 3.000000e+00
    endloop
  endfacet
  facet normal 0.000000e+00 0.000000e+00 -1.000000e+00
    outer loop
      vertex -3.012690e+01 6.403680e+00 3.000000e+00
      vertex -3.407290e+01 2.853170e+00 3.000000e+00
      vertex -2.813720e+01 1.252750e+01 3.000000e+00
    endloop
  endfacet
  facet normal 0.000000e+00 0.000000e+00 -1.000000e+00
    outer loop
      vertex -2.853170e+00 -3.407290e+01 3.000000e+00
      vertex -9.517720e+00 -2.929250e+01 3.000000e+00
      vertex -1.763360e+00 -3.257290e+01 3.000000e+00
    endloop
  endfacet
  facet normal 0.000000e+00 0.000000e+00 -1.000000e+00
    outer loop
      vertex -3.592710e+01 2.853170e+00 3.000000e+00
      vertex -2.050000e+01 3.550700e+01 3.000000e+00
      vertex -3.407290e+01 2.853170e+00 3.000000e+00
    endloop
  endfacet
  facet normal 0.000000e+00 0.000000e+00 -1.000000e+00
    outer loop
      vertex -2.491770e+01 1.810380e+01 3.000000e+00
      vertex -1.266970e+01 3.899330e+01 3.000000e+00
      vertex -2.060920e+01 2.288890e+01 3.000000e+00
    endloop
  endfacet
  facet normal 0.000000e+00 0.000000e+00 -1.000000e+00
    outer loop
      vertex 2.491770e+01 1.810380e+01 3.000000e+00
      vertex 3.745540e+01 1.667620e+01 3.000000e+00
      vertex 2.813720e+01 1.252750e+01 3.000000e+00
    endloop
  endfacet
  facet normal -4.379589e-01 4.603129e-02 8.978158e-01
    outer loop
      vertex -4.010410e+01 8.524380e+00 3.000000e+00
      vertex -4.100000e+01 0.000000e+00 3.000000e+00
      vertex 0.000000e+00 0.000000e+00 2.300000e+01
    endloop
  endfacet
  facet normal -4.379589e-01 -4.603129e-02 8.978158e-01
    outer loop
      vertex 0.000000e+00 0.000000e+00 2.300000e+01
      vertex -4.100000e+01 0.000000e+00 3.000000e+00
      vertex -4.010410e+01 -8.524380e+00 3.000000e+00
    endloop
  endfacet
  facet normal -4.188179e-01 -1.360820e-01 8.978158e-01
    outer loop
      vertex 0.000000e+00 0.000000e+00 2.300000e+01
      vertex -4.010410e+01 -8.524380e+00 3.000000e+00
      vertex -3.745540e+01 -1.667620e+01 3.000000e+00
    endloop
  endfacet
  facet normal -3.813728e-01 -2.201859e-01 8.978157e-01
    outer loop
      vertex 0.000000e+00 0.000000e+00 2.300000e+01
      vertex -3.745540e+01 -1.667620e+01 3.000000e+00
      vertex -3.316970e+01 -2.409920e+01 3.000000e+00
    endloop
  endfacet
  facet normal -3.272599e-01 -2.946659e-01 8.978157e-01
    outer loop
      vertex 0.000000e+00 0.000000e+00 2.300000e+01
      vertex -3.316970e+01 -2.409920e+01 3.000000e+00
      vertex -2.743440e+01 -3.046890e+01 3.000000e+00
    endloop
  endfacet
  facet normal -2.588439e-01 -3.562679e-01 8.978158e-01
    outer loop
      vertex 0.000000e+00 0.000000e+00 2.300000e+01
      vertex -2.743440e+01 -3.046890e+01 3.000000e+00
      vertex -2.050000e+01 -3.550700e+01 3.000000e+00
    endloop
  endfacet
  facet normal -1.791150e-01 -4.022989e-01 8.978159e-01
    outer loop
      vertex 0.000000e+00 0.000000e+00 2.300000e+01
      vertex -2.050000e+01 -3.550700e+01 3.000000e+00
      vertex -1.266970e+01 -3.899330e+01 3.000000e+00
    endloop
  endfacet
  facet normal -9.155838e-02 -4.307479e-01 8.978158e-01
    outer loop
      vertex 0.000000e+00 0.000000e+00 2.300000e+01
      vertex -1.266970e+01 -3.899330e+01 3.000000e+00
      vertex -4.285670e+00 -4.077540e+01 3.000000e+00
    endloop
  endfacet
  facet normal 0.000000e+00 -4.403710e-01 8.978159e-01
    outer loop
      vertex 0.000000e+00 0.000000e+00 2.300000e+01
      vertex -4.285670e+00 -4.077540e+01 3.000000e+00
      vertex 4.285670e+00 -4.077540e+01 3.000000e+00
    endloop
  endfacet
  facet normal 9.155838e-02 -4.307479e-01 8.978158e-01
    outer loop
      vertex 1.266970e+01 -3.899330e+01 3.000000e+00
      vertex 0.000000e+00 0.000000e+00 2.300000e+01
      vertex 4.285670e+00 -4.077540e+01 3.000000e+00
    endloop
  endfacet
  facet normal 1.791150e-01 -4.022989e-01 8.978159e-01
    outer loop
      vertex 2.050000e+01 -3.550700e+01 3.000000e+00
      vertex 0.000000e+00 0.000000e+00 2.300000e+01
      vertex 1.266970e+01 -3.899330e+01 3.000000e+00
    endloop
  endfacet
  facet normal 2.588439e-01 -3.562679e-01 8.978158e-01
    outer loop
      vertex 2.743440e+01 -3.046890e+01 3.000000e+00
      vertex 0.000000e+00 0.000000e+00 2.300000e+01
      vertex 2.050000e+01 -3.550700e+01 3.000000e+00
    endloop
  endfacet
  facet normal 3.272599e-01 -2.946659e-01 8.978157e-01
    outer loop
      vertex 3.316970e+01 -2.409920e+01 3.000000e+00
      vertex 0.000000e+00 0.000000e+00 2.300000e+01
      vertex 2.743440e+01 -3.046890e+01 3.000000e+00
    endloop
  endfacet
  facet normal 3.813728e-01 -2.201859e-01 8.978157e-01
    outer loop
      vertex 3.745540e+01 -1.667620e+01 3.000000e+00
      vertex 0.000000e+00 0.000000e+00 2.300000e+01
      vertex 3.316970e+01 -2.409920e+01 3.000000e+00
    endloop
  endfacet
  facet normal 4.188179e-01 -1.360820e-01 8.978158e-01
    outer loop
      vertex 4.010410e+01 -8.524380e+00 3.000000e+00
      vertex 0.000000e+00 0.000000e+00 2.300000e+01
      vertex 3.745540e+01 -1.667620e+01 3.000000e+00
    endloop
  endfacet
  facet normal 4.379589e-01 -4.603129e-02 8.978158e-01
    outer loop
      vertex 4.100000e+01 0.000000e+00 3.000000e+00
      vertex 0.000000e+00 0.000000e+00 2.300000e+01
      vertex 4.010410e+01 -8.524380e+00 3.000000e+00
    endloop
  endfacet
  facet normal 4.379589e-01 4.603129e-02 8.978158e-01
    outer loop
      vertex 4.010410e+01 8.524380e+00 3.000000e+00
      vertex 0.000000e+00 0.000000e+00 2.300000e+01
      vertex 4.100000e+01 0.000000e+00 3.000000e+00
    endloop
  endfacet
  facet normal 4.188179e-01 1.360820e-01 8.978158e-01
    outer loop
      vertex 3.745540e+01 1.667620e+01 3.000000e+00
      vertex 0.000000e+00 0.000000e+00 2.300000e+01
      vertex 4.010410e+01 8.524380e+00 3.000000e+00
    endloop
  endfacet
  facet normal 3.813728e-01 2.201859e-01 8.978157e-01
    outer loop
      vertex 3.316970e+01 2.409920e+01 3.000000e+00
      vertex 0.000000e+00 0.000000e+00 2.300000e+01
      vertex 3.745540e+01 1.667620e+01 3.000000e+00
    endloop
  endfacet
  facet normal 3.272599e-01 2.946659e-01 8.978157e-01
    outer loop
      vertex 2.743440e+01 3.046890e+01 3.000000e+00
      vertex 0.000000e+00 0.000000e+00 2.300000e+01
      vertex 3.316970e+01 2.409920e+01 3.000000e+00
    endloop
  endfacet
  facet normal 2.588439e-01 3.562679e-01 8.978158e-01
    outer loop
      vertex 2.050000e+01 3.550700e+01 3.000000e+00
      vertex 0.000000e+00 0.000000e+00 2.300000e+01
      vertex 2.743440e+01 3.046890e+01 3.000000e+00
    endloop
  endfacet
  facet normal 1.791150e-01 4.022989e-01 8.978159e-01
    outer loop
      vertex 1.266970e+01 3.899330e+01 3.000000e+00
      vertex 0.000000e+00 0.000000e+00 2.300000e+01
      vertex 2.050000e+01 3.550700e+01 3.000000e+00
    endloop
  endfacet
  facet normal 9.155838e-02 4.307479e-01 8.978158e-01
    outer loop
      vertex 4.285670e+00 4.077540e+01 3.000000e+00
      vertex 0.000000e+00 0.000000e+00 2.300000e+01
      vertex 1.266970e+01 3.899330e+01 3.000000e+00
    endloop
  endfacet
  facet normal 0.000000e+00 4.403710e-01 8.978159e-01
    outer loop
      vertex 4.285670e+00 4.077540e+01 3.000000e+00
      vertex -4.285670e+00 4.077540e+01 3.000000e+00
      vertex 0.000000e+00 0.000000e+00 2.300000e+01
    endloop
  endfacet
  facet normal -9.155838e-02 4.307479e-01 8.978158e-01
    outer loop
      vertex -4.285670e+00 4.077540e+01 3.000000e+00
      vertex -1.266970e+01 3.899330e+01 3.000000e+00
      vertex 0.000000e+00 0.000000e+00 2.300000e+01
    endloop
  endfacet
  facet normal -1.791150e-01 4.022989e-01 8.978159e-01
    outer loop
      vertex -1.266970e+01 3.899330e+01 3.000000e+00
      vertex -2.050000e+01 3.550700e+01 3.000000e+00
      vertex 0.000000e+00 0.000000e+00 2.300000e+01
    endloop
  endfacet
  facet normal -2.588439e-01 3.562679e-01 8.978158e-01
    outer loop
      vertex -2.050000e+01 3.550700e+01 3.000000e+00
      vertex -2.743440e+01 3.046890e+01 3.000000e+00
      vertex 0.000000e+00 0.000000e+00 2.300000e+01
    endloop
  endfacet
  facet normal -3.272599e-01 2.946659e-01 8.978157e-01
    outer loop
      vertex -2.743440e+01 3.046890e+01 3.000000e+00
      vertex -3.316970e+01 2.409920e+01 3.000000e+00
      vertex 0.000000e+00 0.000000e+00 2.300000e+01
    endloop
  endfacet
  facet normal -3.813728e-01 2.201859e-01 8.978157e-01
    outer loop
      vertex -3.316970e+01 2.409920e+01 3.000000e+00
      vertex -3.745540e+01 1.667620e+01 3.000000e+00
      vertex 0.000000e+00 0.000000e+00 2.300000e+01
    endloop
  endfacet
  facet normal -4.188179e-01 1.360820e-01 8.978158e-01
    outer loop
      vertex -3.745540e+01 1.667620e+01 3.000000e+00
      vertex -4.010410e+01 8.524380e+00 3.000000e+00
      vertex 0.000000e+00 0.000000e+00 2.300000e+01
    endloop
  endfacet
  facet normal -9.510565e-01 -3.090169e-01 0.000000e+00
    outer loop
      vertex -3.800000e+01 4.653660e-15 0.000000e+00
      vertex -3.742710e+01 -1.763360e+00 0.000000e+00
      vertex -3.800000e+01 4.653660e-15 3.000000e+00
    endloop
  endfacet
  facet normal -9.510565e-01 -3.090169e-01 0.000000e+00
    outer loop
      vertex -3.800000e+01 4.653660e-15 3.000000e+00
      vertex -3.742710e+01 -1.763360e+00 0.000000e+00
      vertex -3.742710e+01 -1.763360e+00 3.000000e+00
    endloop
  endfacet
  facet normal -9.510565e-01 3.090169e-01 0.000000e+00
    outer loop
      vertex -3.800000e+01 4.653660e-15 0.000000e+00
      vertex -3.800000e+01 4.653660e-15 3.000000e+00
      vertex -3.742710e+01 1.763360e+00 0.000000e+00
    endloop
  endfacet
  facet normal -9.510565e-01 3.090169e-01 0.000000e+00
    outer loop
      vertex -3.742710e+01 1.763360e+00 0.000000e+00
      vertex -3.800000e+01 4.653660e-15 3.000000e+00
      vertex -3.742710e+01 1.763360e+00 3.000000e+00
    endloop
  endfacet
  facet normal -5.877851e-01 8.090171e-01 0.000000e+00
    outer loop
      vertex -3.742710e+01 1.763360e+00 0.000000e+00
      vertex -3.742710e+01 1.763360e+00 3.000000e+00
      vertex -3.592710e+01 2.853170e+00 0.000000e+00
    endloop
  endfacet
  facet normal -5.877851e-01 8.090171e-01 0.000000e+00
    outer loop
      vertex -3.592710e+01 2.853170e+00 0.000000e+00
      vertex -3.742710e+01 1.763360e+00 3.000000e+00
      vertex -3.592710e+01 2.853170e+00 3.000000e+00
    endloop
  endfacet
  facet normal 1.224650e-16 1.000000e+00 0.000000e+00
    outer loop
      vertex -3.592710e+01 2.853170e+00 0.000000e+00
      vertex -3.592710e+01 2.853170e+00 3.000000e+00
      vertex -3.407290e+01 2.853170e+00 0.000000e+00
    endloop
  endfacet
  facet normal 1.224650e-16 1.000000e+00 0.000000e+00
    outer loop
      vertex -3.407290e+01 2.853170e+00 0.000000e+00
      vertex -3.592710e+01 2.853170e+00 3.000000e+00
      vertex -3.407290e+01 2.853170e+00 3.000000e+00
    endloop
  endfacet
  facet normal 5.877851e-01 8.090171e-01 0.000000e+00
    outer loop
      vertex -3.407290e+01 2.853170e+00 0.000000e+00
      vertex -3.407290e+01 2.853170e+00 3.000000e+00
      vertex -3.257290e+01 1.763360e+00 0.000000e+00
    endloop
  endfacet
  facet normal 5.877851e-01 8.090171e-01 0.000000e+00
    outer loop
      vertex -3.257290e+01 1.763360e+00 0.000000e+00
      vertex -3.407290e+01 2.853170e+00 3.000000e+00
      vertex -3.257290e+01 1.763360e+00 3.000000e+00
    endloop
  endfacet
  facet normal 9.510565e-01 3.090169e-01 0.000000e+00
    outer loop
      vertex -3.200000e+01 3.918870e-15 0.000000e+00
      vertex -3.257290e+01 1.763360e+00 0.000000e+00
      vertex -3.257290e+01 1.763360e+00 3.000000e+00
    endloop
  endfacet
  facet normal 9.510565e-01 3.090169e-01 0.000000e+00
    outer loop
      vertex -3.200000e+01 3.918870e-15 3.000000e+00
      vertex -3.200000e+01 3.918870e-15 0.000000e+00
      vertex -3.257290e+01 1.763360e+00 3.000000e+00
    endloop
  endfacet
  facet normal 9.510565e-01 -3.090169e-01 0.000000e+00
    outer loop
      vertex -3.257290e+01 -1.763360e+00 3.000000e+00
      vertex -3.257290e+01 -1.763360e+00 0.000000e+00
      vertex -3.200000e+01 3.918870e-15 0.000000e+00
    endloop
  endfacet
  facet normal 9.510565e-01 -3.090169e-01 0.000000e+00
    outer loop
      vertex -3.200000e+01 3.918870e-15 3.000000e+00
      vertex -3.257290e+01 -1.763360e+00 3.000000e+00
      vertex -3.200000e+01 3.918870e-15 0.000000e+00
    endloop
  endfacet
  facet normal 5.877851e-01 -8.090171e-01 0.000000e+00
    outer loop
      vertex -3.407290e+01 -2.853170e+00 3.000000e+00
      vertex -3.407290e+01 -2.853170e+00 0.000000e+00
      vertex -3.257290e+01 -1.763360e+00 0.000000e+00
    endloop
  endfacet
  facet normal 5.877851e-01 -8.090171e-01 0.000000e+00
    outer loop
      vertex -3.257290e+01 -1.763360e+00 3.000000e+00
      vertex -3.407290e+01 -2.853170e+00 3.000000e+00
      vertex -3.257290e+01 -1.763360e+00 0.000000e+00
    endloop
  endfacet
  facet normal -1.224650e-16 -1.000000e+00 0.000000e+00
    outer loop
      vertex -3.592710e+01 -2.853170e+00 3.000000e+00
      vertex -3.592710e+01 -2.853170e+00 0.000000e+00
      vertex -3.407290e+01 -2.853170e+00 0.000000e+00
    endloop
  endfacet
  facet normal -1.224650e-16 -1.000000e+00 0.000000e+00
    outer loop
      vertex -3.407290e+01 -2.853170e+00 3.000000e+00
      vertex -3.592710e+01 -2.853170e+00 3.000000e+00
      vertex -3.407290e+01 -2.853170e+00 0.000000e+00
    endloop
  endfacet
  facet normal -5.877851e-01 -8.090171e-01 0.000000e+00
    outer loop
      vertex -3.742710e+01 -1.763360e+00 3.000000e+00
      vertex -3.742710e+01 -1.763360e+00 0.000000e+00
      vertex -3.592710e+01 -2.853170e+00 0.000000e+00
    endloop
  endfacet
  facet normal -5.877851e-01 -8.090171e-01 0.000000e+00
    outer loop
      vertex -3.592710e+01 -2.853170e+00 3.000000e+00
      vertex -3.742710e+01 -1.763360e+00 3.000000e+00
      vertex -3.592710e+01 -2.853170e+00 0.000000e+00
    endloop
  endfacet
  facet normal 4.134119e-01 4.345139e-02 -9.095067e-01
    outer loop
      vertex 0.000000e+00 0.000000e+00 1.700000e+01
      vertex -3.012690e+01 -6.403680e+00 3.000000e+00
      vertex -3.080000e+01 0.000000e+00 3.000000e+00
    endloop
  endfacet
  facet normal 4.134119e-01 -4.345139e-02 -9.095067e-01
    outer loop
      vertex -3.012690e+01 6.403680e+00 3.000000e+00
      vertex 0.000000e+00 0.000000e+00 1.700000e+01
      vertex -3.080000e+01 0.000000e+00 3.000000e+00
    endloop
  endfacet
  facet normal 3.953439e-01 -1.284550e-01 -9.095067e-01
    outer loop
      vertex -2.813720e+01 1.252750e+01 3.000000e+00
      vertex 0.000000e+00 0.000000e+00 1.700000e+01
      vertex -3.012690e+01 6.403680e+00 3.000000e+00
    endloop
  endfacet
  facet normal 3.599978e-01 -2.078449e-01 -9.095066e-01
    outer loop
      vertex -2.491770e+01 1.810380e+01 3.000000e+00
      vertex 0.000000e+00 0.000000e+00 1.700000e+01
      vertex -2.813720e+01 1.252750e+01 3.000000e+00
    endloop
  endfacet
  facet normal 3.089170e-01 -2.781500e-01 -9.095070e-01
    outer loop
      vertex -2.060920e+01 2.288890e+01 3.000000e+00
      vertex 0.000000e+00 0.000000e+00 1.700000e+01
      vertex -2.491770e+01 1.810380e+01 3.000000e+00
    endloop
  endfacet
  facet normal 2.443359e-01 -3.362999e-01 -9.095067e-01
    outer loop
      vertex -1.540000e+01 2.667360e+01 3.000000e+00
      vertex 0.000000e+00 0.000000e+00 1.700000e+01
      vertex -2.060920e+01 2.288890e+01 3.000000e+00
    endloop
  endfacet
  facet normal 1.690760e-01 -3.797509e-01 -9.095067e-01
    outer loop
      vertex -9.517720e+00 2.929250e+01 3.000000e+00
      vertex 0.000000e+00 0.000000e+00 1.700000e+01
      vertex -1.540000e+01 2.667360e+01 3.000000e+00
    endloop
  endfacet
  facet normal 8.642669e-02 -4.066050e-01 -9.095069e-01
    outer loop
      vertex -3.219480e+00 3.063130e+01 3.000000e+00
      vertex 0.000000e+00 0.000000e+00 1.700000e+01
      vertex -9.517720e+00 2.929250e+01 3.000000e+00
    endloop
  endfacet
  facet normal 0.000000e+00 -4.156889e-01 -9.095069e-01
    outer loop
      vertex 3.219480e+00 3.063130e+01 3.000000e+00
      vertex 0.000000e+00 0.000000e+00 1.700000e+01
      vertex -3.219480e+00 3.063130e+01 3.000000e+00
    endloop
  endfacet
  facet normal -8.642669e-02 -4.066050e-01 -9.095069e-01
    outer loop
      vertex 3.219480e+00 3.063130e+01 3.000000e+00
      vertex 9.517720e+00 2.929250e+01 3.000000e+00
      vertex 0.000000e+00 0.000000e+00 1.700000e+01
    endloop
  endfacet
  facet normal -1.690760e-01 -3.797509e-01 -9.095067e-01
    outer loop
      vertex 9.517720e+00 2.929250e+01 3.000000e+00
      vertex 1.540000e+01 2.667360e+01 3.000000e+00
      vertex 0.000000e+00 0.000000e+00 1.700000e+01
    endloop
  endfacet
  facet normal -2.443359e-01 -3.362999e-01 -9.095067e-01
    outer loop
      vertex 1.540000e+01 2.667360e+01 3.000000e+00
      vertex 2.060920e+01 2.288890e+01 3.000000e+00
      vertex 0.000000e+00 0.000000e+00 1.700000e+01
    endloop
  endfacet
  facet normal -3.089170e-01 -2.781500e-01 -9.095070e-01
    outer loop
      vertex 2.060920e+01 2.288890e+01 3.000000e+00
      vertex 2.491770e+01 1.810380e+01 3.000000e+00
      vertex 0.000000e+00 0.000000e+00 1.700000e+01
    endloop
  endfacet
  facet normal -3.599978e-01 -2.078449e-01 -9.095066e-01
    outer loop
      vertex 2.491770e+01 1.810380e+01 3.000000e+00
      vertex 2.813720e+01 1.252750e+01 3.000000e+00
      vertex 0.000000e+00 0.000000e+00 1.700000e+01
    endloop
  endfacet
  facet normal -3.953439e-01 -1.284550e-01 -9.095067e-01
    outer loop
      vertex 2.813720e+01 1.252750e+01 3.000000e+00
      vertex 3.012690e+01 6.403680e+00 3.000000e+00
      vertex 0.000000e+00 0.000000e+00 1.700000e+01
    endloop
  endfacet
  facet normal -4.134119e-01 -4.345139e-02 -9.095067e-01
    outer loop
      vertex 3.012690e+01 6.403680e+00 3.000000e+00
      vertex 3.080000e+01 0.000000e+00 3.000000e+00
      vertex 0.000000e+00 0.000000e+00 1.700000e+01
    endloop
  endfacet
  facet normal -4.134119e-01 4.345139e-02 -9.095067e-01
    outer loop
      vertex 3.080000e+01 0.000000e+00 3.000000e+00
      vertex 3.012690e+01 -6.403680e+00 3.000000e+00
      vertex 0.000000e+00 0.000000e+00 1.700000e+01
    endloop
  endfacet
  facet normal -3.953439e-01 1.284550e-01 -9.095067e-01
    outer loop
      vertex 3.012690e+01 -6.403680e+00 3.000000e+00
      vertex 2.813720e+01 -1.252750e+01 3.000000e+00
      vertex 0.000000e+00 0.000000e+00 1.700000e+01
    endloop
  endfacet
  facet normal -3.599978e-01 2.078449e-01 -9.095066e-01
    outer loop
      vertex 2.813720e+01 -1.252750e+01 3.000000e+00
      vertex 2.491770e+01 -1.810380e+01 3.000000e+00
      vertex 0.000000e+00 0.000000e+00 1.700000e+01
    endloop
  endfacet
  facet normal -3.089170e-01 2.781500e-01 -9.095070e-01
    outer loop
      vertex 2.491770e+01 -1.810380e+01 3.000000e+00
      vertex 2.060920e+01 -2.288890e+01 3.000000e+00
      vertex 0.000000e+00 0.000000e+00 1.700000e+01
    endloop
  endfacet
  facet normal -2.443359e-01 3.362999e-01 -9.095067e-01
    outer loop
      vertex 2.060920e+01 -2.288890e+01 3.000000e+00
      vertex 1.540000e+01 -2.667360e+01 3.000000e+00
      vertex 0.000000e+00 0.000000e+00 1.700000e+01
    endloop
  endfacet
  facet normal -1.690760e-01 3.797509e-01 -9.095067e-01
    outer loop
      vertex 1.540000e+01 -2.667360e+01 3.000000e+00
      vertex 9.517720e+00 -2.929250e+01 3.000000e+00
      vertex 0.000000e+00 0.000000e+00 1.700000e+01
    endloop
  endfacet
  facet normal -8.642669e-02 4.066050e-01 -9.095069e-01
    outer loop
      vertex 9.517720e+00 -2.929250e+01 3.000000e+00
      vertex 3.219480e+00 -3.063130e+01 3.000000e+00
      vertex 0.000000e+00 0.000000e+00 1.700000e+01
    endloop
  endfacet
  facet normal 0.000000e+00 4.156889e-01 -9.095069e-01
    outer loop
      vertex 0.000000e+00 0.000000e+00 1.700000e+01
      vertex 3.219480e+00 -3.063130e+01 3.000000e+00
      vertex -3.219480e+00 -3.063130e+01 3.000000e+00
    endloop
  endfacet
  facet normal 8.642669e-02 4.066050e-01 -9.095069e-01
    outer loop
      vertex 0.000000e+00 0.000000e+00 1.700000e+01
      vertex -3.219480e+00 -3.063130e+01 3.000000e+00
      vertex -9.517720e+00 -2.929250e+01 3.000000e+00
    endloop
  endfacet
  facet normal 1.690760e-01 3.797509e-01 -9.095067e-01
    outer loop
      vertex 0.000000e+00 0.000000e+00 1.700000e+01
      vertex -9.517720e+00 -2.929250e+01 3.000000e+00
      vertex -1.540000e+01 -2.667360e+01 3.000000e+00
    endloop
  endfacet
  facet normal 2.443359e-01 3.362999e-01 -9.095067e-01
    outer loop
      vertex 0.000000e+00 0.000000e+00 1.700000e+01
      vertex -1.540000e+01 -2.667360e+01 3.000000e+00
      vertex -2.060920e+01 -2.288890e+01 3.000000e+00
    endloop
  endfacet
  facet normal 3.089170e-01 2.781500e-01 -9.095070e-01
    outer loop
      vertex 0.000000e+00 0.000000e+00 1.700000e+01
      vertex -2.060920e+01 -2.288890e+01 3.000000e+00
      vertex -2.491770e+01 -1.810380e+01 3.000000e+00
    endloop
  endfacet
  facet normal 3.599978e-01 2.078449e-01 -9.095066e-01
    outer loop
      vertex 0.000000e+00 0.000000e+00 1.700000e+01
      vertex -2.491770e+01 -1.810380e+01 3.000000e+00
      vertex -2.813720e+01 -1.252750e+01 3.000000e+00
    endloop
  endfacet
  facet normal 3.953439e-01 1.284550e-01 -9.095067e-01
    outer loop
      vertex 0.000000e+00 0.000000e+00 1.700000e+01
      vertex -2.813720e+01 -1.252750e+01 3.000000e+00
      vertex -3.012690e+01 -6.403680e+00 3.000000e+00
    endloop
  endfacet
  facet normal -8.090171e-01 5.877851e-01 0.000000e+00
    outer loop
      vertex -2.853170e+00 -3.407290e+01 0.000000e+00
      vertex -2.853170e+00 -3.407290e+01 3.000000e+00
      vertex -1.763360e+00 -3.257290e+01 0.000000e+00
    endloop
  endfacet
  facet normal -8.090171e-01 5.877851e-01 0.000000e+00
    outer loop
      vertex -1.763360e+00 -3.257290e+01 0.000000e+00
      vertex -2.853170e+00 -3.407290e+01 3.000000e+00
      vertex -1.763360e+00 -3.257290e+01 3.000000e+00
    endloop
  endfacet
  facet normal -1.000000e+00 2.220450e-16 0.000000e+00
    outer loop
      vertex -2.853170e+00 -3.592710e+01 0.000000e+00
      vertex -2.853170e+00 -3.592710e+01 3.000000e+00
      vertex -2.853170e+00 -3.407290e+01 0.000000e+00
    endloop
  endfacet
  facet normal -1.000000e+00 2.220450e-16 0.000000e+00
    outer loop
      vertex -2.853170e+00 -3.407290e+01 0.000000e+00
      vertex -2.853170e+00 -3.592710e+01 3.000000e+00
      vertex -2.853170e+00 -3.407290e+01 3.000000e+00
    endloop
  endfacet
  facet normal -3.090169e-01 9.510565e-01 0.000000e+00
    outer loop
      vertex -1.763360e+00 -3.257290e+01 0.000000e+00
      vertex -1.763360e+00 -3.257290e+01 3.000000e+00
      vertex -7.105430e-15 -3.200000e+01 0.000000e+00
    endloop
  endfacet
  facet normal -3.090169e-01 9.510565e-01 0.000000e+00
    outer loop
      vertex -7.105430e-15 -3.200000e+01 0.000000e+00
      vertex -1.763360e+00 -3.257290e+01 3.000000e+00
      vertex -7.105430e-15 -3.200000e+01 3.000000e+00
    endloop
  endfacet
  facet normal 3.090169e-01 9.510565e-01 0.000000e+00
    outer loop
      vertex -7.105430e-15 -3.200000e+01 0.000000e+00
      vertex -7.105430e-15 -3.200000e+01 3.000000e+00
      vertex 1.763360e+00 -3.257290e+01 0.000000e+00
    endloop
  endfacet
  facet normal 3.090169e-01 9.510565e-01 0.000000e+00
    outer loop
      vertex 1.763360e+00 -3.257290e+01 0.000000e+00
      vertex -7.105430e-15 -3.200000e+01 3.000000e+00
      vertex 1.763360e+00 -3.257290e+01 3.000000e+00
    endloop
  endfacet
  facet normal 8.090171e-01 5.877851e-01 0.000000e+00
    outer loop
      vertex 2.853170e+00 -3.407290e+01 0.000000e+00
      vertex 1.763360e+00 -3.257290e+01 0.000000e+00
      vertex 1.763360e+00 -3.257290e+01 3.000000e+00
    endloop
  endfacet
  facet normal 8.090171e-01 5.877851e-01 0.000000e+00
    outer loop
      vertex 2.853170e+00 -3.407290e+01 3.000000e+00
      vertex 2.853170e+00 -3.407290e+01 0.000000e+00
      vertex 1.763360e+00 -3.257290e+01 3.000000e+00
    endloop
  endfacet
  facet normal 1.000000e+00 -2.220450e-16 0.000000e+00
    outer loop
      vertex 2.853170e+00 -3.592710e+01 3.000000e+00
      vertex 2.853170e+00 -3.592710e+01 0.000000e+00
      vertex 2.853170e+00 -3.407290e+01 0.000000e+00
    endloop
  endfacet
  facet normal 1.000000e+00 -2.220450e-16 0.000000e+00
    outer loop
      vertex 2.853170e+00 -3.407290e+01 3.000000e+00
      vertex 2.853170e+00 -3.592710e+01 3.000000e+00
      vertex 2.853170e+00 -3.407290e+01 0.000000e+00
    endloop
  endfacet
  facet normal 8.090171e-01 -5.877851e-01 0.000000e+00
    outer loop
      vertex 1.763360e+00 -3.742710e+01 3.000000e+00
      vertex 1.763360e+00 -3.742710e+01 0.000000e+00
      vertex 2.853170e+00 -3.592710e+01 0.000000e+00
    endloop
  endfacet
  facet normal 8.090171e-01 -5.877851e-01 0.000000e+00
    outer loop
      vertex 2.853170e+00 -3.592710e+01 3.000000e+00
      vertex 1.763360e+00 -3.742710e+01 3.000000e+00
      vertex 2.853170e+00 -3.592710e+01 0.000000e+00
    endloop
  endfacet
  facet normal 3.090169e-01 -9.510565e-01 0.000000e+00
    outer loop
      vertex -8.437690e-15 -3.800000e+01 3.000000e+00
      vertex -8.437690e-15 -3.800000e+01 0.000000e+00
      vertex 1.763360e+00 -3.742710e+01 0.000000e+00
    endloop
  endfacet
  facet normal 3.090169e-01 -9.510565e-01 0.000000e+00
    outer loop
      vertex 1.763360e+00 -3.742710e+01 3.000000e+00
      vertex -8.437690e-15 -3.800000e+01 3.000000e+00
      vertex 1.763360e+00 -3.742710e+01 0.000000e+00
    endloop
  endfacet
  facet normal -3.090169e-01 -9.510565e-01 0.000000e+00
    outer loop
      vertex -1.763360e+00 -3.742710e+01 3.000000e+00
      vertex -1.763360e+00 -3.742710e+01 0.000000e+00
      vertex -8.437690e-15 -3.800000e+01 0.000000e+00
    endloop
  endfacet
  facet normal -3.090169e-01 -9.510565e-01 0.000000e+00
    outer loop
      vertex -8.437690e-15 -3.800000e+01 3.000000e+00
      vertex -1.763360e+00 -3.742710e+01 3.000000e+00
      vertex -8.437690e-15 -3.800000e+01 0.000000e+00
    endloop
  endfacet
  facet normal -8.090171e-01 -5.877851e-01 0.000000e+00
    outer loop
      vertex -2.853170e+00 -3.592710e+01 0.000000e+00
      vertex -1.763360e+00 -3.742710e+01 0.000000e+00
      vertex -2.853170e+00 -3.592710e+01 3.000000e+00
    endloop
  endfacet
  facet normal -8.090171e-01 -5.877851e-01 0.000000e+00
    outer loop
      vertex -2.853170e+00 -3.592710e+01 3.000000e+00
      vertex -1.763360e+00 -3.742710e+01 0.000000e+00
      vertex -1.763360e+00 -3.742710e+01 3.000000e+00
    endloop
  endfacet
  facet normal -8.090171e-01 5.877851e-01 0.000000e+00
    outer loop
      vertex -2.853170e+00 3.592710e+01 0.000000e+00
      vertex -2.853170e+00 3.592710e+01 3.000000e+00
      vertex -1.763360e+00 3.742710e+01 0.000000e+00
    endloop
  endfacet
  facet normal -8.090171e-01 5.877851e-01 0.000000e+00
    outer loop
      vertex -1.763360e+00 3.742710e+01 0.000000e+00
      vertex -2.853170e+00 3.592710e+01 3.000000e+00
      vertex -1.763360e+00 3.742710e+01 3.000000e+00
    endloop
  endfacet
  facet normal -1.000000e+00 2.220450e-16 0.000000e+00
    outer loop
      vertex -2.853170e+00 3.407290e+01 0.000000e+00
      vertex -2.853170e+00 3.407290e+01 3.000000e+00
      vertex -2.853170e+00 3.592710e+01 0.000000e+00
    endloop
  endfacet
  facet normal -1.000000e+00 2.220450e-16 0.000000e+00
    outer loop
      vertex -2.853170e+00 3.592710e+01 0.000000e+00
      vertex -2.853170e+00 3.407290e+01 3.000000e+00
      vertex -2.853170e+00 3.592710e+01 3.000000e+00
    endloop
  endfacet
  facet normal -3.090169e-01 9.510565e-01 0.000000e+00
    outer loop
      vertex -1.763360e+00 3.742710e+01 0.000000e+00
      vertex -1.763360e+00 3.742710e+01 3.000000e+00
      vertex 8.437690e-15 3.800000e+01 0.000000e+00
    endloop
  endfacet
  facet normal -3.090169e-01 9.510565e-01 0.000000e+00
    outer loop
      vertex 8.437690e-15 3.800000e+01 0.000000e+00
      vertex -1.763360e+00 3.742710e+01 3.000000e+00
      vertex 8.437690e-15 3.800000e+01 3.000000e+00
    endloop
  endfacet
  facet normal 3.090169e-01 9.510565e-01 0.000000e+00
    outer loop
      vertex 8.437690e-15 3.800000e+01 0.000000e+00
      vertex 8.437690e-15 3.800000e+01 3.000000e+00
      vertex 1.763360e+00 3.742710e+01 0.000000e+00
    endloop
  endfacet
  facet normal 3.090169e-01 9.510565e-01 0.000000e+00
    outer loop
      vertex 1.763360e+00 3.742710e+01 0.000000e+00
      vertex 8.437690e-15 3.800000e+01 3.000000e+00
      vertex 1.763360e+00 3.742710e+01 3.000000e+00
    endloop
  endfacet
  facet normal 8.090171e-01 5.877851e-01 0.000000e+00
    outer loop
      vertex 2.853170e+00 3.592710e+01 0.000000e+00
      vertex 1.763360e+00 3.742710e+01 0.000000e+00
      vertex 1.763360e+00 3.742710e+01 3.000000e+00
    endloop
  endfacet
  facet normal 8.090171e-01 5.877851e-01 0.000000e+00
    outer loop
      vertex 2.853170e+00 3.592710e+01 3.000000e+00
      vertex 2.853170e+00 3.592710e+01 0.000000e+00
      vertex 1.763360e+00 3.742710e+01 3.000000e+00
    endloop
  endfacet
  facet normal 1.000000e+00 -2.220450e-16 0.000000e+00
    outer loop
      vertex 2.853170e+00 3.407290e+01 3.000000e+00
      vertex 2.853170e+00 3.407290e+01 0.000000e+00
      vertex 2.853170e+00 3.592710e+01 0.000000e+00
    endloop
  endfacet
  facet normal 1.000000e+00 -2.220450e-16 0.000000e+00
    outer loop
      vertex 2.853170e+00 3.592710e+01 3.000000e+00
      vertex 2.853170e+00 3.407290e+01 3.000000e+00
      vertex 2.853170e+00 3.592710e+01 0.000000e+00
    endloop
  endfacet
  facet normal 8.090171e-01 -5.877851e-01 0.000000e+00
    outer loop
      vertex 1.763360e+00 3.257290e+01 3.000000e+00
      vertex 1.763360e+00 3.257290e+01 0.000000e+00
      vertex 2.853170e+00 3.407290e+01 0.000000e+00
    endloop
  endfacet
  facet normal 8.090171e-01 -5.877851e-01 0.000000e+00
    outer loop
      vertex 2.853170e+00 3.407290e+01 3.000000e+00
      vertex 1.763360e+00 3.257290e+01 3.000000e+00
      vertex 2.853170e+00 3.407290e+01 0.000000e+00
    endloop
  endfacet
  facet normal 3.090169e-01 -9.510565e-01 0.000000e+00
    outer loop
      vertex 7.105430e-15 3.200000e+01 3.000000e+00
      vertex 7.105430e-15 3.200000e+01 0.000000e+00
      vertex 1.763360e+00 3.257290e+01 0.000000e+00
    endloop
  endfacet
  facet normal 3.090169e-01 -9.510565e-01 0.000000e+00
    outer loop
      vertex 1.763360e+00 3.257290e+01 3.000000e+00
      vertex 7.105430e-15 3.200000e+01 3.000000e+00
      vertex 1.763360e+00 3.257290e+01 0.000000e+00
    endloop
  endfacet
  facet normal -3.090169e-01 -9.510565e-01 0.000000e+00
    outer loop
      vertex -1.763360e+00 3.257290e+01 3.000000e+00
      vertex -1.763360e+00 3.257290e+01 0.000000e+00
      vertex 7.105430e-15 3.200000e+01 0.000000e+00
    endloop
  endfacet
  facet normal -3.090169e-01 -9.510565e-01 0.000000e+00
    outer loop
      vertex 7.105430e-15 3.200000e+01 3.000000e+00
      vertex -1.763360e+00 3.257290e+01 3.000000e+00
      vertex 7.105430e-15 3.200000e+01 0.000000e+00
    endloop
  endfacet
  facet normal -8.090171e-01 -5.877851e-01 0.000000e+00
    outer loop
      vertex -2.853170e+00 3.407290e+01 0.000000e+00
      vertex -1.763360e+00 3.257290e+01 0.000000e+00
      vertex -2.853170e+00 3.407290e+01 3.000000e+00
    endloop
  endfacet
  facet normal -8.090171e-01 -5.877851e-01 0.000000e+00
    outer loop
      vertex -2.853170e+00 3.407290e+01 3.000000e+00
      vertex -1.763360e+00 3.257290e+01 0.000000e+00
      vertex -1.763360e+00 3.257290e+01 3.000000e+00
    endloop
  endfacet
  facet normal -9.510565e-01 3.090169e-01 0.000000e+00
    outer loop
      vertex 3.200000e+01 0.000000e+00 0.000000e+00
      vertex 3.200000e+01 0.000000e+00 3.000000e+00
      vertex 3.257290e+01 1.763360e+00 0.000000e+00
    endloop
  endfacet
  facet normal -9.510565e-01 3.090169e-01 0.000000e+00
    outer loop
      vertex 3.257290e+01 1.763360e+00 0.000000e+00
      vertex 3.200000e+01 0.000000e+00 3.000000e+00
      vertex 3.257290e+01 1.763360e+00 3.000000e+00
    endloop
  endfacet
  facet normal -9.510565e-01 -3.090169e-01 0.000000e+00
    outer loop
      vertex 3.200000e+01 0.000000e+00 0.000000e+00
      vertex 3.257290e+01 -1.763360e+00 0.000000e+00
      vertex 3.200000e+01 0.000000e+00 3.000000e+00
    endloop
  endfacet
  facet normal -9.510565e-01 -3.090169e-01 0.000000e+00
    outer loop
      vertex 3.200000e+01 0.000000e+00 3.000000e+00
      vertex 3.257290e+01 -1.763360e+00 0.000000e+00
      vertex 3.257290e+01 -1.763360e+00 3.000000e+00
    endloop
  endfacet
  facet normal -5.877851e-01 8.090171e-01 0.000000e+00
    outer loop
      vertex 3.257290e+01 1.763360e+00 0.000000e+00
      vertex 3.257290e+01 1.763360e+00 3.000000e+00
      vertex 3.407290e+01 2.853170e+00 0.000000e+00
    endloop
  endfacet
  facet normal -5.877851e-01 8.090171e-01 0.000000e+00
    outer loop
      vertex 3.407290e+01 2.853170e+00 0.000000e+00
      vertex 3.257290e+01 1.763360e+00 3.000000e+00
      vertex 3.407290e+01 2.853170e+00 3.000000e+00
    endloop
  endfacet
  facet normal 0.000000e+00 1.000000e+00 0.000000e+00
    outer loop
      vertex 3.407290e+01 2.853170e+00 0.000000e+00
      vertex 3.407290e+01 2.853170e+00 3.000000e+00
      vertex 3.592710e+01 2.853170e+00 0.000000e+00
    endloop
  endfacet
  facet normal 0.000000e+00 1.000000e+00 0.000000e+00
    outer loop
      vertex 3.592710e+01 2.853170e+00 0.000000e+00
      vertex 3.407290e+01 2.853170e+00 3.000000e+00
      vertex 3.592710e+01 2.853170e+00 3.000000e+00
    endloop
  endfacet
  facet normal 5.877851e-01 8.090171e-01 0.000000e+00
    outer loop
      vertex 3.592710e+01 2.853170e+00 0.000000e+00
      vertex 3.592710e+01 2.853170e+00 3.000000e+00
      vertex 3.742710e+01 1.763360e+00 0.000000e+00
    endloop
  endfacet
  facet normal 5.877851e-01 8.090171e-01 0.000000e+00
    outer loop
      vertex 3.742710e+01 1.763360e+00 0.000000e+00
      vertex 3.592710e+01 2.853170e+00 3.000000e+00
      vertex 3.742710e+01 1.763360e+00 3.000000e+00
    endloop
  endfacet
  facet normal 9.510565e-01 3.090169e-01 0.000000e+00
    outer loop
      vertex 3.800000e+01 0.000000e+00 0.000000e+00
      vertex 3.742710e+01 1.763360e+00 0.000000e+00
      vertex 3.742710e+01 1.763360e+00 3.000000e+00
    endloop
  endfacet
  facet normal 9.510565e-01 3.090169e-01 0.000000e+00
    outer loop
      vertex 3.800000e+01 0.000000e+00 3.000000e+00
      vertex 3.800000e+01 0.000000e+00 0.000000e+00
      vertex 3.742710e+01 1.763360e+00 3.000000e+00
    endloop
  endfacet
  facet normal 9.510565e-01 -3.090169e-01 0.000000e+00
    outer loop
      vertex 3.742710e+01 -1.763360e+00 3.000000e+00
      vertex 3.742710e+01 -1.763360e+00 0.000000e+00
      vertex 3.800000e+01 0.000000e+00 0.000000e+00
    endloop
  endfacet
  facet normal 9.510565e-01 -3.090169e-01 0.000000e+00
    outer loop
      vertex 3.800000e+01 0.000000e+00 3.000000e+00
      vertex 3.742710e+01 -1.763360e+00 3.000000e+00
      vertex 3.800000e+01 0.000000e+00 0.000000e+00
    endloop
  endfacet
  facet normal 5.877851e-01 -8.090171e-01 0.000000e+00
    outer loop
      vertex 3.592710e+01 -2.853170e+00 3.000000e+00
      vertex 3.592710e+01 -2.853170e+00 0.000000e+00
      vertex 3.742710e+01 -1.763360e+00 0.000000e+00
    endloop
  endfacet
  facet normal 5.877851e-01 -8.090171e-01 0.000000e+00
    outer loop
      vertex 3.742710e+01 -1.763360e+00 3.000000e+00
      vertex 3.592710e+01 -2.853170e+00 3.000000e+00
      vertex 3.742710e+01 -1.763360e+00 0.000000e+00
    endloop
  endfacet
  facet normal 0.000000e+00 -1.000000e+00 0.000000e+00
    outer loop
      vertex 3.407290e+01 -2.853170e+00 3.000000e+00
      vertex 3.407290e+01 -2.853170e+00 0.000000e+00
      vertex 3.592710e+01 -2.853170e+00 0.000000e+00
    endloop
  endfacet
  facet normal 0.000000e+00 -1.000000e+00 0.000000e+00
    outer loop
      vertex 3.592710e+01 -2.853170e+00 3.000000e+00
      vertex 3.407290e+01 -2.853170e+00 3.000000e+00
      vertex 3.592710e+01 -2.853170e+00 0.000000e+00
    endloop
  endfacet
  facet normal -5.877851e-01 -8.090171e-01 0.000000e+00
    outer loop
      vertex 3.257290e+01 -1.763360e+00 3.000000e+00
      vertex 3.257290e+01 -1.763360e+00 0.000000e+00
      vertex 3.407290e+01 -2.853170e+00 0.000000e+00
    endloop
  endfacet
  facet normal -5.877851e-01 -8.090171e-01 0.000000e+00
    outer loop
      vertex 3.407290e+01 -2.853170e+00 3.000000e+00
      vertex 3.257290e+01 -1.763360e+00 3.000000e+00
      vertex 3.407290e+01 -2.853170e+00 0.000000e+00
    endloop
  endfacet
  facet normal 0.000000e+00 0.000000e+00 -1.000000e+00
    outer loop
      vertex -3.800000e+01 4.653660e-15 0.000000e+00
      vertex -3.742710e+01 1.763360e+00 0.000000e+00
      vertex -3.742710e+01 -1.763360e+00 0.000000e+00
    endloop
  endfacet
  facet normal 0.000000e+00 0.000000e+00 -1.000000e+00
    outer loop
      vertex -3.742710e+01 -1.763360e+00 0.000000e+00
      vertex -3.742710e+01 1.763360e+00 0.000000e+00
      vertex -3.592710e+01 2.853170e+00 0.000000e+00
    endloop
  endfacet
  facet normal 0.000000e+00 0.000000e+00 -1.000000e+00
    outer loop
      vertex -3.742710e+01 -1.763360e+00 0.000000e+00
      vertex -3.592710e+01 2.853170e+00 0.000000e+00
      vertex -3.407290e+01 2.853170e+00 0.000000e+00
    endloop
  endfacet
  facet normal 0.000000e+00 0.000000e+00 -1.000000e+00
    outer loop
      vertex -3.742710e+01 -1.763360e+00 0.000000e+00
      vertex -3.407290e+01 2.853170e+00 0.000000e+00
      vertex -3.257290e+01 1.763360e+00 0.000000e+00
    endloop
  endfacet
  facet normal 0.000000e+00 0.000000e+00 -1.000000e+00
    outer loop
      vertex -3.742710e+01 -1.763360e+00 0.000000e+00
      vertex -3.257290e+01 1.763360e+00 0.000000e+00
      vertex -3.200000e+01 3.918870e-15 0.000000e+00
    endloop
  endfacet
  facet normal 0.000000e+00 0.000000e+00 -1.000000e+00
    outer loop
      vertex -3.742710e+01 -1.763360e+00 0.000000e+00
      vertex -3.200000e+01 3.918870e-15 0.000000e+00
      vertex -3.257290e+01 -1.763360e+00 0.000000e+00
    endloop
  endfacet
  facet normal 0.000000e+00 0.000000e+00 -1.000000e+00
    outer loop
      vertex -3.742710e+01 -1.763360e+00 0.000000e+00
      vertex -3.257290e+01 -1.763360e+00 0.000000e+00
      vertex -3.407290e+01 -2.853170e+00 0.000000e+00
    endloop
  endfacet
  facet normal 0.000000e+00 0.000000e+00 -1.000000e+00
    outer loop
      vertex -3.742710e+01 -1.763360e+00 0.000000e+00
      vertex -3.407290e+01 -2.853170e+00 0.000000e+00
      vertex -3.592710e+01 -2.853170e+00 0.000000e+00
    endloop
  endfacet
  facet normal 0.000000e+00 0.000000e+00 -1.000000e+00
    outer loop
      vertex -2.853170e+00 -3.592710e+01 0.000000e+00
      vertex -2.853170e+00 -3.407290e+01 0.000000e+00
      vertex -1.763360e+00 -3.742710e+01 0.000000e+00
    endloop
  endfacet
  facet normal 0.000000e+00 0.000000e+00 -1.000000e+00
    outer loop
      vertex -1.763360e+00 -3.742710e+01 0.000000e+00
      vertex -2.853170e+00 -3.407290e+01 0.000000e+00
      vertex -1.763360e+00 -3.257290e+01 0.000000e+00
    endloop
  endfacet
  facet normal 0.000000e+00 0.000000e+00 -1.000000e+00
    outer loop
      vertex -1.763360e+00 -3.742710e+01 0.000000e+00
      vertex -1.763360e+00 -3.257290e+01 0.000000e+00
      vertex -7.105430e-15 -3.200000e+01 0.000000e+00
    endloop
  endfacet
  facet normal 0.000000e+00 0.000000e+00 -1.000000e+00
    outer loop
      vertex -1.763360e+00 -3.742710e+01 0.000000e+00
      vertex -7.105430e-15 -3.200000e+01 0.000000e+00
      vertex 1.763360e+00 -3.257290e+01 0.000000e+00
    endloop
  endfacet
  facet normal 0.000000e+00 0.000000e+00 -1.000000e+00
    outer loop
      vertex -1.763360e+00 -3.742710e+01 0.000000e+00
      vertex 1.763360e+00 -3.257290e+01 0.000000e+00
      vertex 2.853170e+00 -3.407290e+01 0.000000e+00
    endloop
  endfacet
  facet normal 0.000000e+00 0.000000e+00 -1.000000e+00
    outer loop
      vertex -1.763360e+00 -3.742710e+01 0.000000e+00
      vertex 2.853170e+00 -3.407290e+01 0.000000e+00
      vertex 2.853170e+00 -3.592710e+01 0.000000e+00
    endloop
  endfacet
  facet normal 0.000000e+00 0.000000e+00 -1.000000e+00
    outer loop
      vertex -1.763360e+00 -3.742710e+01 0.000000e+00
      vertex 2.853170e+00 -3.592710e+01 0.000000e+00
      vertex 1.763360e+00 -3.742710e+01 0.000000e+00
    endloop
  endfacet
  facet normal 0.000000e+00 0.000000e+00 -1.000000e+00
    outer loop
      vertex -1.763360e+00 -3.742710e+01 0.000000e+00
      vertex 1.763360e+00 -3.742710e+01 0.000000e+00
      vertex -8.437690e-15 -3.800000e+01 0.000000e+00
    endloop
  endfacet
  facet normal 0.000000e+00 0.000000e+00 -1.000000e+00
    outer loop
      vertex -2.853170e+00 3.407290e+01 0.000000e+00
      vertex -2.853170e+00 3.592710e+01 0.000000e+00
      vertex -1.763360e+00 3.257290e+01 0.000000e+00
    endloop
  endfacet
  facet normal 0.000000e+00 0.000000e+00 -1.000000e+00
    outer loop
      vertex -1.763360e+00 3.257290e+01 0.000000e+00
      vertex -2.853170e+00 3.592710e+01 0.000000e+00
      vertex -1.763360e+00 3.742710e+01 0.000000e+00
    endloop
  endfacet
  facet normal 0.000000e+00 0.000000e+00 -1.000000e+00
    outer loop
      vertex -1.763360e+00 3.257290e+01 0.000000e+00
      vertex -1.763360e+00 3.742710e+01 0.000000e+00
      vertex 8.437690e-15 3.800000e+01 0.000000e+00
    endloop
  endfacet
  facet normal 0.000000e+00 0.000000e+00 -1.000000e+00
    outer loop
      vertex -1.763360e+00 3.257290e+01 0.000000e+00
      vertex 8.437690e-15 3.800000e+01 0.000000e+00
      vertex 1.763360e+00 3.742710e+01 0.000000e+00
    endloop
  endfacet
  facet normal 0.000000e+00 0.000000e+00 -1.000000e+00
    outer loop
      vertex -1.763360e+00 3.257290e+01 0.000000e+00
      vertex 1.763360e+00 3.742710e+01 0.000000e+00
      vertex 2.853170e+00 3.592710e+01 0.000000e+00
    endloop
  endfacet
  facet normal 0.000000e+00 0.000000e+00 -1.000000e+00
    outer loop
      vertex -1.763360e+00 3.257290e+01 0.000000e+00
      vertex 2.853170e+00 3.592710e+01 0.000000e+00
      vertex 2.853170e+00 3.407290e+01 0.000000e+00
    endloop
  endfacet
  facet normal 0.000000e+00 0.000000e+00 -1.000000e+00
    outer loop
      vertex -1.763360e+00 3.257290e+01 0.000000e+00
      vertex 2.853170e+00 3.407290e+01 0.000000e+00
      vertex 1.763360e+00 3.257290e+01 0.000000e+00
    endloop
  endfacet
  facet normal 0.000000e+00 0.000000e+00 -1.000000e+00
    outer loop
      vertex -1.763360e+00 3.257290e+01 0.000000e+00
      vertex 1.763360e+00 3.257290e+01 0.000000e+00
      vertex 7.105430e-15 3.200000e+01 0.000000e+00
    endloop
  endfacet
  facet normal 0.000000e+00 0.000000e+00 -1.000000e+00
    outer loop
      vertex 3.200000e+01 0.000000e+00 0.000000e+00
      vertex 3.257290e+01 1.763360e+00 0.000000e+00
      vertex 3.257290e+01 -1.763360e+00 0.000000e+00
    endloop
  endfacet
  facet normal 0.000000e+00 0.000000e+00 -1.000000e+00
    outer loop
      vertex 3.257290e+01 -1.763360e+00 0.000000e+00
      vertex 3.257290e+01 1.763360e+00 0.000000e+00
      vertex 3.407290e+01 2.853170e+00 0.000000e+00
    endloop
  endfacet
  facet normal 0.000000e+00 0.000000e+00 -1.000000e+00
    outer loop
      vertex 3.257290e+01 -1.763360e+00 0.000000e+00
      vertex 3.407290e+01 2.853170e+00 0.000000e+00
      vertex 3.592710e+01 2.853170e+00 0.000000e+00
    endloop
  endfacet
  facet normal 0.000000e+00 0.000000e+00 -1.000000e+00
    outer loop
      vertex 3.257290e+01 -1.763360e+00 0.000000e+00
      vertex 3.592710e+01 2.853170e+00 0.000000e+00
      vertex 3.742710e+01 1.763360e+00 0.000000e+00
    endloop
  endfacet
  facet normal 0.000000e+00 0.000000e+00 -1.000000e+00
    outer loop
      vertex 3.257290e+01 -1.763360e+00 0.000000e+00
      vertex 3.742710e+01 1.763360e+00 0.000000e+00
      vertex 3.800000e+01 0.000000e+00 0.000000e+00
    endloop
  endfacet
  facet normal 0.000000e+00 0.000000e+00 -1.000000e+00
    outer loop
      vertex 3.257290e+01 -1.763360e+00 0.000000e+00
      vertex 3.800000e+01 0.000000e+00 0.000000e+00
      vertex 3.742710e+01 -1.763360e+00 0.000000e+00
    endloop
  endfacet
  facet normal 0.000000e+00 0.000000e+00 -1.000000e+00
    outer loop
      vertex 3.257290e+01 -1.763360e+00 0.000000e+00
      vertex 3.742710e+01 -1.763360e+00 0.000000e+00
      vertex 3.592710e+01 -2.853170e+00 0.000000e+00
    endloop
  endfacet
  facet normal 0.000000e+00 0.000000e+00 -1.000000e+00
    outer loop
      vertex 3.257290e+01 -1.763360e+00 0.000000e+00
      vertex 3.592710e+01 -2.853170e+00 0.000000e+00
      vertex 3.407290e+01 -2.853170e+00 0.000000e+00
    endloop
  endfacet
endsolid Default
